<svg id="Layer_1" data-name="Layer 1" xmlns="http://www.w3.org/2000/svg" viewBox="0 0 779.47 805.02"><defs><style>.cls-1{fill:#1c2454;}.cls-2{fill:#90c0f4;}.cls-3{fill:#084e9b;}</style></defs><title>logo</title><path class="cls-1" d="M636.44,816.3V994.15H560.85a52.17,52.17,0,0,0-52.17,52.18v62.81H343.6A52.17,52.17,0,0,1,291.42,1057V816.3a52.17,52.17,0,0,1,52.18-52.17H584.26A52.17,52.17,0,0,1,636.44,816.3Z" transform="translate(-291.42 -764.13)"/><path class="cls-1" d="M1070.9,816.3V1057a52.17,52.17,0,0,1-52.18,52.18h-165v-62.81a52.2,52.2,0,0,0-52.18-52.18H725.88V816.3a52.17,52.17,0,0,1,52.18-52.17h240.66A52.17,52.17,0,0,1,1070.9,816.3Z" transform="translate(-291.42 -764.13)"/><path class="cls-1" d="M636.44,1339.17V1517a52.17,52.17,0,0,1-52.18,52.17H343.6A52.17,52.17,0,0,1,291.42,1517V1276.31a52.17,52.17,0,0,1,52.18-52.18H508.68V1287a52.2,52.2,0,0,0,52.17,52.18Z" transform="translate(-291.42 -764.13)"/><path class="cls-1" d="M1070.9,1276.31V1517a52.17,52.17,0,0,1-52.18,52.17H778.06A52.17,52.17,0,0,1,725.88,1517v-177.8h75.63A52.24,52.24,0,0,0,853.69,1287v-62.86h165A52.17,52.17,0,0,1,1070.9,1276.31Z" transform="translate(-291.42 -764.13)"/><path class="cls-2" d="M853.69,1109.14v115H778.06a52.17,52.17,0,0,0-52.18,52.18v62.86H636.44v-62.86a52.17,52.17,0,0,0-52.18-52.18H508.68v-115h75.58A52.17,52.17,0,0,0,636.44,1057V994.15h89.44V1057a52.17,52.17,0,0,0,52.18,52.18Z" transform="translate(-291.42 -764.13)"/><path class="cls-3" d="M636.44,994.15V1057a52.17,52.17,0,0,1-52.18,52.18H508.68v-62.81a52.17,52.17,0,0,1,52.17-52.18Z" transform="translate(-291.42 -764.13)"/><path class="cls-3" d="M636.44,1276.31v62.86H560.85A52.2,52.2,0,0,1,508.68,1287v-62.86h75.58A52.17,52.17,0,0,1,636.44,1276.31Z" transform="translate(-291.42 -764.13)"/><path class="cls-3" d="M853.69,1046.33v62.81H778.06A52.17,52.17,0,0,1,725.88,1057V994.15h75.63A52.2,52.2,0,0,1,853.69,1046.33Z" transform="translate(-291.42 -764.13)"/><path class="cls-3" d="M853.69,1224.13V1287a52.24,52.24,0,0,1-52.18,52.18H725.88v-62.86a52.17,52.17,0,0,1,52.18-52.18Z" transform="translate(-291.42 -764.13)"/></svg>